<?xml version="1.0" ?><!DOCTYPE svg  PUBLIC '-//W3C//DTD SVG 1.1//EN'  'http://www.w3.org/Graphics/SVG/1.1/DTD/svg11.dtd'><svg enable-background="new 0 0 140 140" height="140px" id="Layer_1" version="1.1" viewBox="0 0 140 140" width="140px" xml:space="preserve" xmlns="http://www.w3.org/2000/svg" xmlns:xlink="http://www.w3.org/1999/xlink"><path d="M111.999,74c-11.6,17-30.999,28-52.998,28c-20.4,0-39-9-52.4-27.4c-0.799-1-1.6-2.4-1.6-4.599c0-2.2,0.801-3.601,1.801-5  c13.199-18,31.799-27,52.199-27C81,38,100.399,49.201,111.999,66.2c3-4.199,6-14.199,7-20.199c0.801-4.8,3.801-8,8-8  c4.4,0,8,3.6,8,8v14c0,4.199-2.199,7.8-5.4,10c3.201,2.199,5.4,5.8,5.4,10v14c0,4.4-3.6,8-8,8c-4.399,0-7.199-3.201-8-8  C117.999,88,114.999,78,111.999,74z M9.601,72.199C17.401,83.4,29.001,92,43.001,96V44.201C29.2,48,17.401,56.6,9.601,67.8  c-0.199,0.399-0.6,1-0.6,2.2C9.001,71.199,9.401,71.801,9.601,72.199z M29.001,66c2.199,0,4,1.8,4,4c0,2.199-1.801,4-4,4  c-2.2,0-4-1.801-4-4C25.001,67.8,26.801,66,29.001,66z M47.001,97c3.6,0.6,8,1,12,1C80.399,98,99.2,86.799,109.8,70  c-10.6-16.8-29.4-28-50.799-28c-4,0-8.4,0.4-12,1.2V97z M55.001,74c2.199,0,4-2,4-4c0-2-1.801-4-4-4c-1.201,0-2-0.801-2-2  c0-1.2,0.799-2,2-2c2.199,0,4-2,4-4s-1.801-4-4-4c-1.201,0-2-0.8-2-2s0.799-2,2-2c3.6,0,6.799,2.6,8,6c2.199,0,4-1.8,4-4  s-1.801-4-4-4c-1.201,0-2-0.8-2-2s0.799-2,2-2c3.6,0,6.799,2.6,7.999,6c3.601,0,6.8,2.6,8,6c3.601,0,6.8,2.6,8,6c4.399,0,8,3.6,8,8  c0,4.4-3.601,8-8.2,8c-1,3.4-4.199,6-8,6c-1,3.4-4.199,6-8,6c-1,3.199-4.199,6-7.799,6c-1.201,0-2-0.801-2-2c0-1.201,0.799-2,2-2  c2.199,0,4-1.801,4-4c0-2.201-1.801-4-4.201-4c-1,3.199-4.199,6-7.799,6c-1.201,0-2-0.801-2-2c0-1.201,0.799-2,2-2c2.199,0,4-2,4-4  s-1.801-4-4-4c-1.201,0-2-0.801-2-2S53.8,74,55.001,74z M63.001,68c2.199,0,4-1.801,4-4c0-2.2-1.801-4-4.201-4  c-0.399,1.6-1.399,3-2.6,4C61.4,65,62.4,66.4,63.001,68z M60.2,76c1.2,1,2.2,2.4,2.801,4c2.199,0,4-1.801,4-4S65.2,72,62.8,72  C62.4,73.6,61.4,75,60.2,76z M71,62c2.2,0,4-1.801,4-4c0-2.2-1.8-4-4.2-4c-0.399,1.6-1.399,3-2.6,4C69.4,59,70.4,60.4,71,62z M71,74  c2.2,0,4-1.801,4-4c0-2.2-1.8-4-4.2-4c-0.399,1.6-1.399,3-2.6,4C69.4,71,70.4,72.4,71,74z M68.2,82c1.2,1,2.2,2.4,2.8,4  c2.2,0,4-1.801,4-4s-1.8-4-4.2-4C70.4,79.6,69.4,81,68.2,82z M79,68c2.2,0,4-1.801,4-4c0-2.2-1.8-4-4.2-4c-0.4,1.6-1.4,3-2.6,4  C77.399,65,78.399,66.4,79,68z M76.2,76c1.199,1,2.199,2.4,2.8,4c2.2,0,4-1.801,4-4c0-2-1.8-4-4-4C78.399,73.6,77.399,75,76.2,76z   M87,74c2.2,0,4-1.801,4-4c0-2.2-1.8-4-4.2-4c-0.4,1.6-1.4,3-2.6,4C85.399,71,86.399,72.4,87,74z M114.399,70c4,5,7.4,16.798,8.4,24  c0.399,2.199,2,4,4.199,4c2.2,0,4-1.801,4-4V80c0-4.4-3.6-8-8-8c-1.199,0-2-0.801-2-2c0-1.2,0.801-2,2-2c4.4,0,8-3.601,8-8V46  c0-2.2-1.8-4-4-4c-2.199,0-3.8,1.8-4.199,4C121.8,53.201,118.399,65,114.399,70z"/></svg>